<?xml version="1.0" standalone="no"?>
<!DOCTYPE svg PUBLIC "-//W3C//DTD SVG 20010904//EN"
 "http://www.w3.org/TR/2001/REC-SVG-20010904/DTD/svg10.dtd">
<svg version="1.0" xmlns="http://www.w3.org/2000/svg"
 width="300.000000pt" height="300.000000pt" viewBox="0 0 300.000000 300.000000"
 preserveAspectRatio="xMidYMid meet">
<metadata>
Created by potrace 1.11, written by Peter Selinger 2001-2013
</metadata>
<g transform="translate(0.000000,300.000000) scale(0.100000,-0.100000)"
fill="#000000" stroke="none">
<path d="M1063 1499 l0 -859 443 0 444 0 0 173 0 173 -270 -1 c-235 0 -270 1
-271 15 -1 8 -2 84 -3 168 -1 127 1 153 14 157 8 3 103 4 210 4 107 0 202 0
211 0 15 1 17 21 17 171 1 168 0 170 -21 171 -12 0 -114 1 -227 2 l-205 2 0
167 0 168 256 0 c236 0 257 1 261 18 3 14 2 282 -1 318 -1 7 -131 11 -429 11
l-429 0 0 -858z"/>
</g>
</svg>
